<svg width="1222" height="701" viewBox="0 0 1222 701" fill="none" xmlns="http://www.w3.org/2000/svg">
<rect width="1222" height="700.953" fill="#E8DEF8"/>
<path d="M615.649 234.131C612.998 231.775 609.002 231.775 606.351 234.131L481.768 344.826C476.955 349.102 479.98 357.059 486.417 357.059H503.9C507.766 357.059 510.9 360.193 510.9 364.059V463C510.9 466.866 514.034 470 517.9 470H704.1C707.966 470 711.1 466.866 711.1 463V357.059H735.583C742.02 357.059 745.045 349.102 740.232 344.826L615.649 234.131Z" fill="#6750A4"/>
<path d="M589.667 428L547 385.872L561.933 371.128L589.667 398.511L660.067 329L675 343.745L589.667 428Z" fill="white"/>
</svg>
