<svg width="1440" height="826" viewBox="0 0 1440 826" fill="none" xmlns="http://www.w3.org/2000/svg">
<rect width="1440" height="826" fill="#00A82D"/>
<path d="M683.277 364.014C683.277 366.324 683.094 370.175 680.767 372.667C678.258 374.978 674.426 375.159 672.144 375.159H647.553C640.436 375.159 636.193 375.159 633.364 375.567C631.813 375.748 629.897 376.519 628.939 376.926C628.528 377.108 628.528 376.926 628.756 376.745L684.828 319.612C685.01 319.431 685.239 319.431 685.01 319.793C684.6 320.744 683.87 322.693 683.687 324.188C683.277 327.088 683.277 331.301 683.277 338.415V364.014ZM735.334 536.728C728.809 532.514 725.342 526.896 724.019 523.452C722.65 520.1 721.92 516.52 721.92 512.85C721.92 496.857 735.014 483.853 751.12 483.808C755.91 483.808 759.742 487.659 759.742 492.462C759.742 495.588 758.054 498.442 755.317 499.983C754.359 500.572 752.99 500.934 752.032 501.161C751.074 501.342 747.424 501.75 745.69 503.29C743.774 504.831 742.223 507.323 742.223 510.041C742.223 512.941 743.363 515.614 745.28 517.562C748.747 521.006 753.355 522.954 758.328 522.954C771.422 522.909 782.007 512.307 781.961 499.303C781.961 487.568 774.068 477.193 763.712 472.572C762.161 471.801 759.697 471.212 757.37 470.623C755.454 470.216 753.538 469.898 751.621 469.672C743.546 468.72 723.38 462.377 722.011 444.481C722.011 444.481 716.08 471.394 704.172 478.688C703.032 479.277 701.481 479.866 699.747 480.229C698.013 480.636 696.097 480.818 695.504 480.818C676.114 481.95 655.537 475.788 641.348 461.199C641.348 461.199 631.722 453.316 626.749 431.205C625.608 425.814 623.281 416.208 621.958 407.147C621.365 403.885 621.182 401.393 621 399.082C621 389.658 626.749 383.315 634.048 382.363H673.239C679.946 382.363 683.824 380.642 686.288 378.331C689.573 375.25 690.348 370.81 690.348 365.645V325.094C691.307 317.981 697.648 312 707.047 312H711.655C713.571 312 715.898 312.181 717.997 312.408C719.548 312.589 720.871 312.997 723.198 313.586C734.923 316.485 737.387 328.401 737.387 328.401C737.387 328.401 759.469 332.253 770.647 334.156C781.186 336.059 807.328 337.826 812.301 364.149C824.027 426.856 816.909 487.614 816.362 487.614C808.104 546.877 758.921 543.977 758.921 543.977C750.526 544.022 742.268 541.53 735.334 536.728ZM779.498 410.771C773.156 410.182 767.772 412.72 765.856 417.522C765.445 418.474 765.08 419.652 765.263 420.195C765.445 420.785 765.856 420.966 766.221 421.147C768.548 422.325 772.38 422.869 777.946 423.458C783.513 424.047 787.345 424.409 789.854 424.047C790.265 424.047 790.63 423.865 790.995 423.276C791.405 422.687 791.177 421.555 791.177 420.558C790.675 415.393 785.839 411.542 779.498 410.771Z" fill="white"/>
</svg>
